<svg viewBox="0 0 30 30" width="30" xmlns="http://www.w3.org/2000/svg">
 <path fill-rule="evenodd" clip-rule="evenodd" d="M12.5401 0.883573C13.9751 -0.294524 16.0249 -0.294525 17.4599 0.883573L28.545 9.98377C29.4712 10.7442 30 11.8851 30 13.0796V26.0206C30 28.1828 28.2824 30 26.085 30H3.91496C1.71765 30 0 28.1828 0 26.0206V13.0796C0 11.8851 0.528759 10.7442 1.45505 9.98377L12.5401 0.883573ZM15.6178 3.12751C15.2535 2.82847 14.7465 2.82847 14.3822 3.12751L3.29719 12.2277C3.05479 12.4267 2.90323 12.7383 2.90323 13.0796V26.0206C2.90323 26.6505 3.39132 27.0968 3.91496 27.0968H26.085C26.6087 27.0968 27.0968 26.6505 27.0968 26.0206V13.0796C27.0968 12.7383 26.9452 12.4267 26.7028 12.2277L27.6239 11.1057L26.7028 12.2277L15.6178 3.12751Z" ></path>
</svg>