<svg width="15" height="15" viewBox="0 0 15 15" fill="none" xmlns="http://www.w3.org/2000/svg" fill="#8C8C8C">
<path d="M11.7273 14.1849C11.0642 14.1849 10.4284 13.9215 9.95951 13.4527C9.49067 12.9838 9.22728 12.3479 9.22728 11.6849C9.22739 11.5087 9.24413 11.3329 9.27728 11.1599L4.71895 8.88491C4.3846 9.2689 3.94098 9.54166 3.44742 9.66669C2.95385 9.79172 2.43388 9.76307 1.95703 9.58457C1.48019 9.40606 1.06922 9.08622 0.779092 8.66782C0.488959 8.24941 0.333496 7.75239 0.333496 7.24324C0.333496 6.73408 0.488959 6.23707 0.779092 5.81866C1.06922 5.40026 1.48019 5.08041 1.95703 4.90191C2.43388 4.72341 2.95385 4.69476 3.44742 4.81979C3.94098 4.94482 4.3846 5.21758 4.71895 5.60157L9.27728 3.32657C9.24413 3.15354 9.22739 2.97776 9.22728 2.80157C9.23475 2.2168 9.44699 1.65316 9.82708 1.20869C10.2072 0.764231 10.731 0.467085 11.3076 0.36895C11.8841 0.270815 12.4768 0.377903 12.9825 0.671583C13.4882 0.965263 13.875 1.42695 14.0755 1.97632C14.2761 2.52568 14.2776 3.12796 14.08 3.67837C13.8823 4.22878 13.498 4.69249 12.9938 4.98881C12.4896 5.28514 11.8975 5.39533 11.3205 5.30022C10.7435 5.2051 10.218 4.9107 9.83562 4.46824L5.27728 6.71824C5.36014 7.0746 5.36014 7.44521 5.27728 7.80157L9.83562 10.0766C10.1128 9.76667 10.463 9.53082 10.8544 9.39036C11.2457 9.2499 11.6659 9.20927 12.077 9.27216C12.488 9.33504 12.8768 9.49945 13.2083 9.7505C13.5397 10.0016 13.8034 10.3313 13.9752 10.7099C14.1471 11.0885 14.2219 11.504 14.1927 11.9188C14.1635 12.3336 14.0314 12.7346 13.8082 13.0854C13.585 13.4362 13.2778 13.7258 12.9144 13.928C12.5511 14.1302 12.1431 14.1802 11.7273 14.1849ZM10.5856 11.1349C10.5116 11.297 10.4746 11.4734 10.4773 11.6516C10.4793 11.9539 10.5916 12.2451 10.793 12.4705C10.9944 12.696 11.2712 12.8402 11.5714 12.8761C11.8715 12.912 12.1745 12.8372 12.4234 12.6657C12.6724 12.4941 12.8502 12.2377 12.9235 11.9444C12.9968 11.6511 12.9606 11.3411 12.8217 11.0726C12.6828 10.8041 12.4507 10.5955 12.1689 10.486C11.8871 10.3764 11.5751 10.3734 11.2912 10.4775C11.0074 10.5817 10.7713 10.7858 10.6273 11.0516L10.5856 11.1349ZM2.83562 5.99324C2.50409 5.99324 2.18615 6.12494 1.95173 6.35936C1.71731 6.59378 1.58562 6.91172 1.58562 7.24324C1.58562 7.57476 1.71731 7.8927 1.95173 8.12712C2.18615 8.36154 2.50409 8.49324 2.83562 8.49324C3.06012 8.4921 3.28029 8.43131 3.47358 8.3171C3.66686 8.20288 3.82632 8.03935 3.93562 7.84324C4.00723 7.68041 4.04421 7.42113 4.04421 7.24324C4.04421 7.06535 4.00723 6.88941 3.93562 6.72657C3.83757 6.5149 3.68298 6.33441 3.48888 6.20501C3.29478 6.07561 3.06872 6.00233 2.83562 5.99324ZM10.6273 3.40157C10.7725 3.67175 11.0115 3.87957 11.2992 3.98596C11.5869 4.09235 11.9035 4.08999 12.1896 3.97932C12.4757 3.86864 12.7115 3.65728 12.8527 3.38497C12.9939 3.11265 13.0308 2.79814 12.9564 2.50055C12.882 2.20296 12.7014 1.9428 12.4487 1.76897C12.196 1.59514 11.8884 1.51961 11.5839 1.55658C11.2794 1.59356 10.9989 1.74049 10.7951 1.96975C10.5913 2.19902 10.4783 2.49483 10.4773 2.80157C10.4735 2.97712 10.5106 3.15114 10.5856 3.30991L10.6273 3.40157Z" fill="inherit" ></path>
</svg>