<svg viewBox="0 0 20 20" xmlns="http://www.w3.org/2000/svg" fill="#fff" width="24">
<path fill-rule="evenodd" clip-rule="evenodd" d="M6.75 2.99999C6.75 2.03349 7.5335 1.24999 8.5 1.24999H11.5C12.4665 1.24999 13.25 2.03349 13.25 2.99999V3.24999H15C15.9665 3.24999 16.75 4.03349 16.75 4.99999V7.75002L15.75 7.75V17C15.75 17.9665 14.9665 18.75 14 18.75H6C5.0335 18.75 4.25 17.9665 4.25 17V7.74999H3.25V4.99999C3.25 4.03349 4.0335 3.24999 5 3.24999H6.75V2.99999ZM8.25 3.24999H11.75V2.99999C11.75 2.86192 11.6381 2.74999 11.5 2.74999H8.5C8.36193 2.74999 8.25 2.86192 8.25 2.99999V3.24999ZM5.75 7.74999V17C5.75 17.1381 5.86193 17.25 6 17.25H14C14.1381 17.25 14.25 17.1381 14.25 17V7.74999H5.75ZM15.25 6.24999V4.99999C15.25 4.86192 15.1381 4.74999 15 4.74999H5C4.86193 4.74999 4.75 4.86192 4.75 4.99999V6.24999L15.25 6.24999Z"></path>
<path fill-rule="evenodd" clip-rule="evenodd" d="M9.2 9.3V15C9.2 15.3866 8.8866 15.7 8.5 15.7C8.1134 15.7 7.8 15.3866 7.8 15V9.3H9.2ZM12.2 9.3V15C12.2 15.3866 11.8866 15.7 11.5 15.7C11.1134 15.7 10.8 15.3866 10.8 15V9.3H12.2Z"></path>
</svg>